<svg xmlns="http://www.w3.org/2000/svg" xmlns:xlink="http://www.w3.org/1999/xlink" width="500" zoomAndPan="magnify" viewBox="0 0 375 374.999991" height="500" preserveAspectRatio="xMidYMid meet" version="1.0"><defs><g/><clipPath id="df079ed0ae"><path d="M 212 19 L 308 19 L 308 98 L 212 98 Z M 212 19 " clip-rule="nonzero"/></clipPath><clipPath id="55c37a891b"><path d="M 215.9375 11.222656 L 310.476562 27.902344 L 297.839844 99.546875 L 203.296875 82.867188 Z M 215.9375 11.222656 " clip-rule="nonzero"/></clipPath><clipPath id="c8e42e799c"><path d="M 215.9375 11.222656 L 310.476562 27.902344 L 297.839844 99.546875 L 203.296875 82.867188 Z M 215.9375 11.222656 " clip-rule="nonzero"/></clipPath></defs><g fill="#6b6a7e" fill-opacity="1"><g transform="translate(154.146938, 333.503234)"><g><path d="M 6.90625 -44.234375 L 48.65625 -43.40625 L 48.65625 -27.734375 L 6.1875 -28.140625 Z M 6.90625 -44.234375 "/></g></g></g><path fill="#ffffff" d="M 326.734375 234.746094 L 321.359375 251.660156 C 307.125 284.925781 283.128906 308.511719 249.375 322.417969 C 215.421875 336.257812 179.285156 336.515625 140.960938 323.1875 C 104.800781 308.726562 78.675781 285.488281 62.582031 253.472656 C 57.445312 243.140625 53.761719 232.339844 51.53125 221.070312 L 49.40625 204.007812 C 48.757812 192.460938 49.816406 180.828125 52.585938 169.109375 C 62.167969 133.402344 82.710938 106.699219 114.210938 89.007812 C 145.710938 71.316406 180.984375 66.664062 220.035156 75.054688 C 258.648438 85.257812 287.992188 105.378906 308.0625 135.421875 C 328.136719 165.460938 334.359375 198.570312 326.734375 234.746094 " fill-opacity="1" fill-rule="nonzero"/><g clip-path="url(#df079ed0ae)"><g clip-path="url(#55c37a891b)"><g clip-path="url(#c8e42e799c)"><path fill="#737373" d="M 218.898438 84.269531 C 220.566406 84.226562 223.90625 84.113281 227.265625 84.148438 C 230.625 84.1875 234.003906 84.375 237.40625 84.710938 C 240.808594 85.050781 244.234375 85.53125 246.789062 86 C 249.347656 86.464844 251.03125 86.8125 252.660156 87.179688 C 254.292969 87.546875 255.867188 87.933594 257.390625 88.332031 C 258.914062 88.734375 260.382812 89.148438 262.171875 89.679688 C 263.957031 90.207031 266.101562 90.867188 268.300781 91.585938 C 270.503906 92.304688 272.769531 93.078125 275.089844 93.914062 C 277.414062 94.75 279.792969 95.648438 281.640625 96.316406 C 283.488281 96.980469 284.332031 97.207031 285.109375 97.382812 C 285.882812 97.554688 286.671875 97.671875 287.808594 97.640625 C 288.945312 97.605469 291.324219 96.550781 292.601562 92.609375 C 293.878906 88.671875 294.511719 84.671875 295.738281 79.917969 C 296.964844 75.167969 298.699219 69.660156 300.984375 63.421875 C 303.269531 57.183594 306.136719 50.238281 307.125 43.726562 C 308.113281 37.214844 304.804688 36.257812 303.644531 36.683594 C 302.484375 37.105469 301.929688 37.5 301.433594 37.921875 C 300.941406 38.347656 300.429688 38.835938 299.640625 39.625 C 298.851562 40.414062 297.445312 41.84375 295.535156 43.800781 C 293.628906 45.753906 291.214844 48.234375 288.304688 51.253906 C 285.394531 54.273438 281.953125 57.804688 279.945312 59.875 C 277.941406 61.949219 277.753906 62.121094 277.695312 62.175781 C 277.636719 62.230469 277.765625 62.183594 278.15625 62.132812 C 278.546875 62.085938 279.210938 61.996094 279.421875 62.070312 C 279.628906 62.144531 279.570312 62.070312 279.28125 61.683594 C 278.988281 61.292969 278.566406 60.605469 278.070312 59.640625 C 277.570312 58.679688 277.019531 57.460938 276.542969 56.308594 C 276.070312 55.15625 275.53125 53.621094 274.703125 51.101562 C 273.878906 48.582031 272.8125 45.105469 271.492188 40.6875 C 270.175781 36.269531 268.605469 30.914062 267.621094 27.574219 C 266.640625 24.234375 266.402344 23.625 266.097656 23.007812 C 265.789062 22.394531 265.363281 21.75 264.695312 21.066406 C 264.023438 20.378906 262.96875 19.738281 261.976562 19.453125 C 260.988281 19.167969 258.882812 19.355469 257.648438 20.054688 C 256.414062 20.757812 255.738281 21.453125 255.257812 22.105469 C 254.773438 22.761719 254.371094 23.425781 250.683594 30.878906 C 246.996094 38.328125 240.433594 52.566406 240.203125 53.035156 C 239.96875 53.503906 239.757812 53.894531 239.617188 54.144531 C 239.472656 54.390625 239.425781 54.46875 239.578125 54.316406 C 239.734375 54.164062 244.484375 53.0625 244.382812 52.902344 C 244.28125 52.738281 242.652344 51.382812 240.160156 49.023438 C 237.671875 46.660156 234.394531 43.371094 230.367188 39.175781 C 226.339844 34.980469 221.53125 29.882812 220.957031 29.378906 C 220.378906 28.871094 219.722656 28.460938 218.769531 28.140625 C 217.8125 27.820312 216.515625 27.8125 215.28125 28.332031 C 214.050781 28.847656 212.261719 32.046875 212.367188 35.140625 C 212.46875 38.234375 212.96875 41.96875 213.828125 46.410156 C 214.6875 50.847656 215.914062 56.023438 217.214844 60.207031 C 218.515625 64.390625 223.625 63.304688 223.023438 60.472656 C 223.023438 60.472656 222.613281 54.667969 221.972656 49.839844 C 221.328125 45.015625 220.960938 41.050781 220.886719 37.988281 C 220.8125 34.925781 221 32.816406 219.804688 34.546875 C 218.605469 36.277344 217.566406 36.558594 216.714844 36.472656 C 215.863281 36.382812 215.394531 36.179688 215.203125 36.058594 C 215.011719 35.941406 214.84375 35.773438 219.066406 40.921875 C 223.289062 46.070312 226.90625 50.289062 229.910156 53.59375 C 232.910156 56.902344 235.332031 59.324219 237.378906 61 C 239.425781 62.679688 241.933594 63.742188 244.8125 62.730469 C 247.691406 61.722656 248.183594 61.128906 248.585938 60.550781 C 248.984375 59.972656 249.351562 59.367188 249.710938 58.710938 C 250.070312 58.050781 250.484375 57.230469 256.910156 42.925781 C 263.335938 28.621094 263.445312 28.378906 263.539062 28.191406 C 263.628906 28.003906 263.585938 28.039062 263.199219 28.351562 C 262.808594 28.664062 261.707031 29.144531 260.402344 29.132812 C 259.097656 29.125 258.6875 28.945312 258.113281 28.53125 C 257.539062 28.121094 257.308594 27.835938 257.253906 27.738281 C 257.203125 27.640625 257.25 27.703125 257.332031 27.871094 C 257.417969 28.039062 259.5625 33.886719 261.390625 38.84375 C 263.21875 43.800781 264.738281 47.851562 265.933594 51.003906 C 267.128906 54.15625 268.019531 56.425781 268.636719 57.835938 C 269.25 59.246094 269.980469 60.753906 270.695312 62.09375 C 271.40625 63.429688 272.113281 64.585938 272.84375 65.578125 C 273.574219 66.570312 274.386719 67.425781 275.304688 68.070312 C 276.226562 68.710938 277.140625 69.082031 278.214844 69.042969 C 279.289062 69.003906 280.148438 68.78125 280.835938 68.441406 C 281.523438 68.097656 282.105469 67.691406 282.644531 67.234375 C 283.179688 66.773438 287.128906 63.054688 290.539062 59.855469 C 293.949219 56.65625 296.839844 53.984375 299.183594 51.816406 C 301.53125 49.648438 303.351562 48.011719 304.628906 46.882812 C 305.910156 45.753906 306.40625 45.320312 306.742188 45.046875 C 307.078125 44.777344 307.25 44.660156 307.074219 44.761719 C 306.898438 44.863281 305.679688 45.183594 303.503906 42.054688 C 301.328125 38.921875 297.511719 46.191406 294.277344 52.96875 C 291.046875 59.746094 288.480469 65.972656 286.621094 71.675781 C 284.765625 77.375 283.585938 82.554688 283.082031 87.0625 C 282.578125 91.570312 284.699219 87.726562 286.152344 87.21875 C 287.605469 86.710938 287.835938 86.726562 287.632812 86.695312 C 287.429688 86.664062 286.957031 86.5625 286.410156 86.433594 C 285.863281 86.300781 283.417969 85.480469 280.910156 84.683594 C 278.402344 83.882812 275.953125 83.144531 273.558594 82.472656 C 271.160156 81.796875 268.820312 81.195312 266.542969 80.664062 C 264.265625 80.128906 262.699219 79.789062 261.070312 79.46875 C 259.441406 79.152344 257.765625 78.855469 256.046875 78.582031 C 254.328125 78.308594 252.566406 78.050781 250.726562 77.808594 C 248.882812 77.570312 245.183594 77.25 241.507812 77.078125 C 237.832031 76.90625 234.199219 76.910156 230.609375 77.074219 C 227.019531 77.238281 223.476562 77.578125 221.703125 77.878906 C 218.226562 78.371094 220.597656 84.074219 218.898438 84.269531 Z M 218.898438 84.269531 " fill-opacity="1" fill-rule="nonzero"/></g></g></g><g fill="#737373" fill-opacity="1"><g transform="translate(37.511721, 189.565843)"><g><path d="M 88.515625 -103.328125 L 89.671875 -0.265625 L 62.390625 -0.90625 L 60.3125 -59.65625 L 45.875 -38.078125 L 32.359375 -58.875 L 30.28125 -1.296875 L 2.59375 -0.265625 L 4.03125 -104.234375 L 31.453125 -103.84375 L 45.875 -80.453125 L 59.78125 -103.71875 Z M 88.515625 -103.328125 "/></g></g></g><g fill="#737373" fill-opacity="1"><g transform="translate(126.717373, 132.486173)"><g><path d="M 8.015625 -51.328125 L 56.46875 -50.375 L 56.46875 -32.1875 L 7.171875 -32.65625 Z M 8.015625 -51.328125 "/></g></g></g><g fill="#737373" fill-opacity="1"><g transform="translate(129.800415, 186.19375)"><g><path d="M 53.828125 -80.203125 L 58.546875 -75.09375 L 57.84375 -7.3125 L 54.140625 -0.203125 L 9.125 0.09375 L 2.5 -3.8125 L 2 -74.890625 L 5.21875 -79.90625 Z M 23.0625 -63.359375 L 23.65625 -17.046875 L 37.1875 -16.140625 L 37.390625 -62.15625 Z M 23.0625 -63.359375 "/></g></g></g><g fill="#737373" fill-opacity="1"><g transform="translate(190.357038, 185.877631)"><g><path d="M 81.46875 -95.109375 L 82.546875 -0.234375 L 57.421875 -0.84375 L 55.515625 -54.921875 L 42.234375 -35.0625 L 29.796875 -54.203125 L 27.875 -1.203125 L 2.390625 -0.234375 L 3.703125 -95.953125 L 28.953125 -95.59375 L 42.234375 -74.0625 L 55.03125 -95.46875 Z M 81.46875 -95.109375 "/></g></g></g><g fill="#737373" fill-opacity="1"><g transform="translate(129.800415, 308.62227)"><g><path d="M 75.796875 -94.640625 L 75.921875 -33.40625 L 70.453125 -27.046875 L 30.15625 -25.734375 L 28.984375 -1.8125 L 2.59375 0.390625 L 2.59375 -103.609375 L 70.71875 -99.703125 Z M 48.625 -79.171875 L 31.453125 -80.859375 L 30.8125 -49.140625 L 48.484375 -50.4375 Z M 48.625 -79.171875 "/></g></g></g><g fill="#737373" fill-opacity="1"><g transform="translate(208.318072, 308.62227)"><g><path d="M 70.84375 -28.984375 L 64.09375 -28.203125 L 73.1875 -9.625 L 70.984375 -5.203125 L 50.953125 0 L 36.53125 -26.390625 L 30.15625 -26.125 L 28.984375 -2.59375 L 2.59375 -0.390625 L 2.59375 -104.265625 L 70.71875 -100.09375 L 75.796875 -95.03125 L 75.921875 -37.703125 Z M 48.484375 -50.828125 L 48.625 -79.953125 L 31.453125 -81.640625 L 30.8125 -49.53125 Z M 48.484375 -50.828125 "/></g></g></g><g fill="#737373" fill-opacity="1"><g transform="translate(286.835729, 308.62227)"><g><path d="M 3.375 -102.5625 L 31.59375 -103.484375 L 28.078125 -2.59375 L 2.59375 0.125 Z M 3.375 -102.5625 "/></g></g></g></svg>